<svg width="13" height="16" viewBox="0 0 13 16" fill="none" xmlns="http://www.w3.org/2000/svg">
<path d="M8.85139 5.23488L9.06865 5.37973C10.636 6.42476 11.4197 6.94728 11.5614 7.65904C11.6064 7.88467 11.6064 8.11695 11.5614 8.34258C11.4196 9.05433 10.6359 9.57677 9.0684 10.6217L5.89717 12.7356C3.99889 14.001 3.04975 14.6336 2.27387 14.4143C2.03057 14.3455 1.80507 14.2248 1.61288 14.0605C1 13.5366 1 12.3959 1 10.1145L1 5.88619C1 3.60457 1 2.46377 1.61294 1.93985C1.80514 1.77556 2.03066 1.65487 2.27397 1.58609C3.04991 1.36676 3.99909 1.99961 5.89744 3.26532L6.35208 3.56845" stroke="white" stroke-width="1.5" stroke-linecap="round" stroke-linejoin="round"/>
</svg>
